# xmcd
#
# Track frame offsets: 
#        150
#        21162
#        37680
#        58370
#        76549
#        96327
#        117203
#        136176
#        156555
#        174692
#        192513
#        210283
#
# Disc length: 3095 seconds
#
# Revision: 0
# Processed by: cddbd v1.5.2PL0 Copyright (c) Steve Scherf et al.
# Submitted via: ExactAudioCopy v1.3
#
DISCID=9b0c150c
DTITLE=Texas Horns - Get Here Quick
DYEAR=2019
DGENRE=Blues
TTITLE0=Guitar Town
TTITLE1=I'm Doin' Alright
TTITLE2=Feelin' No Pain
TTITLE3=Fix Your Face
TTITLE4=Better Get Here Quick
TTITLE5=Love is Gone
TTITLE6=2018
TTITLE7=Sundown Talkin'
TTITLE8=Funky Ape
TTITLE9=Soulshine
TTITLE10=You Can't Be Serious
TTITLE11=Truckload of Trouble
EXTD=
EXTT0=
EXTT1=
EXTT2=
EXTT3=
EXTT4=
EXTT5=
EXTT6=
EXTT7=
EXTT8=
EXTT9=
EXTT10=
EXTT11=
PLAYORDER=
